<?xml version="1.0" ?><!DOCTYPE svg  PUBLIC '-//W3C//DTD SVG 1.1//EN'  'http://www.w3.org/Graphics/SVG/1.1/DTD/svg11.dtd'><svg enable-background="new 0 0 100 100" height="100px" id="Your_Icon" version="1.1" viewBox="0 0 100 100" width="100px" xml:space="preserve" xmlns="http://www.w3.org/2000/svg" xmlns:xlink="http://www.w3.org/1999/xlink"><g><g><g><g/></g><g/></g></g><g><g><path clip-rule="evenodd" d="M21.692,45.443c0.618,2.998,0.815,9.668,0.39,13.313    c-2.445,0.24-6.59,0.135-8.007-0.586c0.316-3.998-0.714-9.271,0.976-12.499C17.529,45.205,20.044,45.431,21.692,45.443z     M17.2,56.218c0.833,0.014,1.366,0.326,2.344,0.195c0.445-2.029,0.073-5.688,0.195-8.04c-0.968-0.784-1.704,0.2-2.733,0.033    C17.06,51.021,16.853,53.896,17.2,56.218z" fill-rule="evenodd"/><path clip-rule="evenodd" d="M36.925,45.477c0.649,0.458,0.924,1.289,1.562,1.758    c-0.322,3.866,0.696,8.156,0,11.132c-2.597,0.861-5.924,0.861-8.203,0.391c0.505-2.858-0.968-10.252,0.977-13.28    C33.15,45.477,35.037,45.477,36.925,45.477z M32.824,47.983c0,2.538,0,5.891,0,8.43c0.87,0.152,1.864,0.617,2.734,0.195    c-0.113-2.75,0.238-5.966-0.195-8.398C34.357,48.246,33.739,47.857,32.824,47.983z" fill-rule="evenodd"/><path clip-rule="evenodd" d="M69.539,45.672c0.799,3.181,0.178,8.833,0.585,12.303    c-1.225,1.457-6.194,1.715-7.811,0.391c-0.693-3.39-0.476-9.617-0.195-12.694c1.265-0.322,4.853-0.322,5.467,0    C67.451,46.022,68.806,45.321,69.539,45.672z M64.852,56.413c0.789,0.607,0.95-0.245,2.344,0c0-2.669,0-5.339,0-8.007    c-0.472-0.375-1.569-0.123-2.344-0.195C64.91,50.148,64.333,53.634,64.852,56.413z" fill-rule="evenodd"/><path clip-rule="evenodd" d="M84.576,45.867c0.995,3.241-0.58,9.253,0.781,12.499    c-1.654,1.692-6.343,0.984-8.201,0c0.196-3.74-0.542-9.149,0.585-12.499C79.729,45.878,82.168,45.075,84.576,45.867z     M80.28,48.992c-0.289,2.129-0.445,5.771,0.194,7.617c0.773-0.336,1.419,0.087,1.953-0.195c0-2.474,0-4.947,0-7.421    C81.873,48.46,80.894,48.595,80.28,48.992z" fill-rule="evenodd"/><path clip-rule="evenodd" d="M53.72,46.062c0.562,3.116,0.827,8.882,0.195,12.694    c-2.202,0.287-5.691,0.42-7.616-0.195c-0.378-3.065-0.297-8.915,0.391-12.305C48.248,45.523,51.848,45.839,53.72,46.062z     M48.838,56.413c3.659,0.77,1.958-4.571,2.343-7.616c-0.781,0-1.562,0-2.343,0C48.838,51.335,48.838,53.874,48.838,56.413z" fill-rule="evenodd"/><path clip-rule="evenodd" d="M22.278,23.799c1.584,0.173,3.914-0.398,4.882,0.39    c0.74,1.344,0.195,3.971,0.586,5.664c18.327-0.542,39.184-0.452,58.197,0c3.844,2.016,5.468,6.25,8.397,9.179    c-0.743,6.683,0.103,12.459,0.195,18.944c0.068,4.741,0.839,9.625-0.195,14.256c-31.698,0.017-61.019,0.062-88.858-0.391    C4.65,60.526,5.565,49.956,5.287,38.251c0.253-1.05,1.568-1.037,2.148-1.758c1.824-2.473,3.466-5.126,5.664-7.226    c2.601-0.799,5.596,0.62,8.006,0c1.149-0.674,0.35-3.297,0.587-4.883C21.801,24.104,21.997,23.908,22.278,23.799z M23.84,29.657    c0.65,0,1.302,0,1.953,0c0-0.977,0-1.952,0-2.929C23.756,25.581,23.595,27.883,23.84,29.657z M12.09,36.688    c0.592,0.217,2.297-0.124,3.353,0c0-1.236,0-2.473,0-3.71C14.001,32.618,12.836,34.088,12.09,36.688z M18.176,36.688    c1.041,0,2.084,0,3.125,0c0-1.236,0-2.473,0-3.71c-1.041,0-2.083,0-3.125,0C18.176,34.215,18.176,35.452,18.176,36.688z     M24.036,36.688c1.153,0.148,1.581,0.148,2.734,0c0-1.236,0-2.473,0-3.71c-0.912,0-1.823,0-2.734,0    C24.036,34.215,24.036,35.452,24.036,36.688z M29.699,33.368c0,1.237,0,2.474,0,3.71c1.106,0,2.213,0,3.321,0    c0-1.367,0-2.734,0-4.101C31.998,32.805,31.998,32.805,29.699,33.368z M35.948,33.368c0,1.237,0,2.474,0,3.71    c0.846,0,1.693,0,2.539,0c0-1.302,0-2.604,0-3.906C37.427,33.024,36.905,33.414,35.948,33.368z M41.222,37.079    c1.171,0,1.53,0,2.702,0c0-1.237,0-2.474,0-3.71c-1.172,0-1.531,0-2.702,0C41.222,34.605,41.222,35.842,41.222,37.079z     M46.853,37.079c0.976,0,1.953,0,2.929,0c0-1.237,0-2.474,0-3.71c-0.977,0-1.953,0-2.929,0    C46.853,34.605,46.853,35.842,46.853,37.079z M52.712,37.079c0.975,0,1.952,0,2.929,0c0-1.237,0-2.474,0-3.71    c-0.977,0-1.954,0-2.929,0C52.712,34.605,52.712,35.842,52.712,37.079z M58.569,37.079c0.912,0,1.822,0,2.734,0    c0.063-1.239-0.165-2.769,0.195-3.71c-0.977,0-1.953,0-2.93,0C58.569,34.605,58.569,35.842,58.569,37.079z M64.428,37.079    c1.043,0,2.084,0,3.126,0c0-1.237,0-2.474,0-3.71c-1.107,0-2.214,0-3.321,0C64.594,34.31,64.365,35.839,64.428,37.079z     M70.482,37.079c0.781,0,1.562,0,2.344,0c0.002-1.37-0.012-2.049-0.391-3.71c-0.65,0-1.303,0-1.953,0    C70.482,34.605,70.482,35.842,70.482,37.079z M75.561,36.883c0.584,0.393,1.028,0.11,1.92,0.195c0-1.237,0-2.474,0-3.71    c-0.914,0.126-1.524-0.255-2.115,0.195C75.433,35.838,75.433,35.838,75.561,36.883z M80.215,37.079c0.717,0,1.433,0,2.147,0    c-0.1-1.136,0.22-2.693-0.195-3.516c-0.323-0.327-1.146-0.155-1.757-0.195C80.562,34.823,80.135,35.698,80.215,37.079z     M84.935,37.079c0.594-0.123,2.496,0.25,2.768-0.195c-0.72-0.777-1.948-2.675-2.768-3.353    C84.935,34.442,84.935,36.167,84.935,37.079z M9.974,41.375C9.07,49.417,9.841,58.958,9.583,67.35    c26.929,0.176,53.875,0.568,81.243,0.194c0.102-8.541-0.613-16.633-0.587-25.583C63.326,42.054,36.415,41.105,9.974,41.375z" fill-rule="evenodd"/></g></g></svg>